# xmcd
#
# Track frame offsets:
#	150
#	22268
#	41725
#	64930
#	84925
#	107350
#	128350
#	152168
#	174648
#	196713
#
# Disc length: 2892 seconds
#
# Revision: 1
# Processed by: cddbd v1.5.2PL0 Copyright (c) Steve Scherf et al.
# Submitted via: EZCDAudioConverter 8.0.2.1
#
DISCID=770b4a0a
DTITLE=Như Mai - Như Giọt Sương Khuya
DYEAR=1988
DGENRE=
TTITLE0=Như Mai, Vũ Khanh - Lãng du
TTITLE1=Như Mai - Như Giọt Sương Khuya
TTITLE2=Elvis Phương - Đường xưa ướt mưa
TTITLE3=Như Mai - Tình yêu không đến hai lần
TTITLE4=Như Mai - Kiếp nào có yêu nhau
TTITLE5=Như Mai - Hõi người tình
TTITLE6=Như Mai - Bẽ bàng
TTITLE7=Như Mai - Chiều một mình qua phố
TTITLE8=Như Mai - Tình sầu
TTITLE9=Như Mai - Phút cuối
EXTD=
EXTT0=
EXTT1=
EXTT2=
EXTT3=
EXTT4=
EXTT5=
EXTT6=
EXTT7=
EXTT8=
EXTT9=
PLAYORDER=
